<svg width="128" height="128" viewBox="0 0 128 128" fill="none" xmlns="http://www.w3.org/2000/svg">
<rect width="128" height="128" fill="#1E1E1E"/>
<rect width="128" height="128" fill="#1B1A1F"/>
<mask id="path-2-outside-1_0_1" maskUnits="userSpaceOnUse" x="39" y="32" width="38" height="61" fill="black">
<rect fill="white" x="39" y="32" width="38" height="61"/>
<path d="M40.75 80.3636H52.3864V92H40.75V80.3636ZM40.75 68.7273H52.3864V80.3636H40.75V68.7273ZM40.75 57.0909H52.3864V68.7273H40.75V57.0909ZM40.75 45.4545H52.3864V57.0909H40.75V45.4545ZM40.75 33.8182H52.3864V45.4545H40.75V33.8182ZM52.3864 33.8182H64.0227V45.4545H52.3864V33.8182ZM64.0227 33.8182H75.6591V45.4545H64.0227V33.8182ZM64.0227 45.4545H75.6591V57.0909H64.0227V45.4545ZM52.3864 57.0909H64.0227V68.7273H52.3864V57.0909ZM64.0227 68.7273H75.6591V80.3636H64.0227V68.7273ZM64.0227 80.3636H75.6591V92H64.0227V80.3636Z"/>
</mask>
<path d="M40.75 80.3636H52.3864V92H40.75V80.3636ZM40.75 68.7273H52.3864V80.3636H40.75V68.7273ZM40.75 57.0909H52.3864V68.7273H40.75V57.0909ZM40.75 45.4545H52.3864V57.0909H40.75V45.4545ZM40.75 33.8182H52.3864V45.4545H40.75V33.8182ZM52.3864 33.8182H64.0227V45.4545H52.3864V33.8182ZM64.0227 33.8182H75.6591V45.4545H64.0227V33.8182ZM64.0227 45.4545H75.6591V57.0909H64.0227V45.4545ZM52.3864 57.0909H64.0227V68.7273H52.3864V57.0909ZM64.0227 68.7273H75.6591V80.3636H64.0227V68.7273ZM64.0227 80.3636H75.6591V92H64.0227V80.3636Z" fill="white"/>
<path d="M40.75 80.3636V79.3636H39.75V80.3636H40.75ZM52.3864 80.3636H53.3864V79.3636H52.3864V80.3636ZM52.3864 92V93H53.3864V92H52.3864ZM40.75 92H39.75V93H40.75V92ZM40.75 68.7273V67.7273H39.75V68.7273H40.75ZM52.3864 68.7273H53.3864V67.7273H52.3864V68.7273ZM52.3864 80.3636V81.3636H53.3864V80.3636H52.3864ZM40.75 80.3636H39.75V81.3636H40.75V80.3636ZM40.75 57.0909V56.0909H39.75V57.0909H40.75ZM52.3864 57.0909H53.3864V56.0909H52.3864V57.0909ZM52.3864 68.7273V69.7273H53.3864V68.7273H52.3864ZM40.75 68.7273H39.75V69.7273H40.75V68.7273ZM40.75 45.4545V44.4545H39.75V45.4545H40.75ZM52.3864 45.4545H53.3864V44.4545H52.3864V45.4545ZM52.3864 57.0909V58.0909H53.3864V57.0909H52.3864ZM40.75 57.0909H39.75V58.0909H40.75V57.0909ZM40.75 33.8182V32.8182H39.75V33.8182H40.75ZM52.3864 33.8182H53.3864V32.8182H52.3864V33.8182ZM52.3864 45.4545V46.4545H53.3864V45.4545H52.3864ZM40.75 45.4545H39.75V46.4545H40.75V45.4545ZM52.3864 33.8182V32.8182H51.3864V33.8182H52.3864ZM64.0227 33.8182H65.0227V32.8182H64.0227V33.8182ZM64.0227 45.4545V46.4545H65.0227V45.4545H64.0227ZM52.3864 45.4545H51.3864V46.4545H52.3864V45.4545ZM64.0227 33.8182V32.8182H63.0227V33.8182H64.0227ZM75.6591 33.8182H76.6591V32.8182H75.6591V33.8182ZM75.6591 45.4545V46.4545H76.6591V45.4545H75.6591ZM64.0227 45.4545H63.0227V46.4545H64.0227V45.4545ZM64.0227 45.4545V44.4545H63.0227V45.4545H64.0227ZM75.6591 45.4545H76.6591V44.4545H75.6591V45.4545ZM75.6591 57.0909V58.0909H76.6591V57.0909H75.6591ZM64.0227 57.0909H63.0227V58.0909H64.0227V57.0909ZM52.3864 57.0909V56.0909H51.3864V57.0909H52.3864ZM64.0227 57.0909H65.0227V56.0909H64.0227V57.0909ZM64.0227 68.7273V69.7273H65.0227V68.7273H64.0227ZM52.3864 68.7273H51.3864V69.7273H52.3864V68.7273ZM64.0227 68.7273V67.7273H63.0227V68.7273H64.0227ZM75.6591 68.7273H76.6591V67.7273H75.6591V68.7273ZM75.6591 80.3636V81.3636H76.6591V80.3636H75.6591ZM64.0227 80.3636H63.0227V81.3636H64.0227V80.3636ZM64.0227 80.3636V79.3636H63.0227V80.3636H64.0227ZM75.6591 80.3636H76.6591V79.3636H75.6591V80.3636ZM75.6591 92V93H76.6591V92H75.6591ZM64.0227 92H63.0227V93H64.0227V92ZM40.75 80.3636V81.3636H52.3864V80.3636V79.3636H40.75V80.3636ZM52.3864 80.3636H51.3864V92H52.3864H53.3864V80.3636H52.3864ZM52.3864 92V91H40.75V92V93H52.3864V92ZM40.75 92H41.75V80.3636H40.75H39.75V92H40.75ZM40.75 68.7273V69.7273H52.3864V68.7273V67.7273H40.75V68.7273ZM52.3864 68.7273H51.3864V80.3636H52.3864H53.3864V68.7273H52.3864ZM52.3864 80.3636V79.3636H40.75V80.3636V81.3636H52.3864V80.3636ZM40.75 80.3636H41.75V68.7273H40.75H39.75V80.3636H40.75ZM40.75 57.0909V58.0909H52.3864V57.0909V56.0909H40.75V57.0909ZM52.3864 57.0909H51.3864V68.7273H52.3864H53.3864V57.0909H52.3864ZM52.3864 68.7273V67.7273H40.75V68.7273V69.7273H52.3864V68.7273ZM40.75 68.7273H41.75V57.0909H40.75H39.75V68.7273H40.75ZM40.75 45.4545V46.4545H52.3864V45.4545V44.4545H40.75V45.4545ZM52.3864 45.4545H51.3864V57.0909H52.3864H53.3864V45.4545H52.3864ZM52.3864 57.0909V56.0909H40.75V57.0909V58.0909H52.3864V57.0909ZM40.75 57.0909H41.75V45.4545H40.75H39.75V57.0909H40.75ZM40.75 33.8182V34.8182H52.3864V33.8182V32.8182H40.75V33.8182ZM52.3864 33.8182H51.3864V45.4545H52.3864H53.3864V33.8182H52.3864ZM52.3864 45.4545V44.4545H40.75V45.4545V46.4545H52.3864V45.4545ZM40.75 45.4545H41.75V33.8182H40.75H39.75V45.4545H40.75ZM52.3864 33.8182V34.8182H64.0227V33.8182V32.8182H52.3864V33.8182ZM64.0227 33.8182H63.0227V45.4545H64.0227H65.0227V33.8182H64.0227ZM64.0227 45.4545V44.4545H52.3864V45.4545V46.4545H64.0227V45.4545ZM52.3864 45.4545H53.3864V33.8182H52.3864H51.3864V45.4545H52.3864ZM64.0227 33.8182V34.8182H75.6591V33.8182V32.8182H64.0227V33.8182ZM75.6591 33.8182H74.6591V45.4545H75.6591H76.6591V33.8182H75.6591ZM75.6591 45.4545V44.4545H64.0227V45.4545V46.4545H75.6591V45.4545ZM64.0227 45.4545H65.0227V33.8182H64.0227H63.0227V45.4545H64.0227ZM64.0227 45.4545V46.4545H75.6591V45.4545V44.4545H64.0227V45.4545ZM75.6591 45.4545H74.6591V57.0909H75.6591H76.6591V45.4545H75.6591ZM75.6591 57.0909V56.0909H64.0227V57.0909V58.0909H75.6591V57.0909ZM64.0227 57.0909H65.0227V45.4545H64.0227H63.0227V57.0909H64.0227ZM52.3864 57.0909V58.0909H64.0227V57.0909V56.0909H52.3864V57.0909ZM64.0227 57.0909H63.0227V68.7273H64.0227H65.0227V57.0909H64.0227ZM64.0227 68.7273V67.7273H52.3864V68.7273V69.7273H64.0227V68.7273ZM52.3864 68.7273H53.3864V57.0909H52.3864H51.3864V68.7273H52.3864ZM64.0227 68.7273V69.7273H75.6591V68.7273V67.7273H64.0227V68.7273ZM75.6591 68.7273H74.6591V80.3636H75.6591H76.6591V68.7273H75.6591ZM75.6591 80.3636V79.3636H64.0227V80.3636V81.3636H75.6591V80.3636ZM64.0227 80.3636H65.0227V68.7273H64.0227H63.0227V80.3636H64.0227ZM64.0227 80.3636V81.3636H75.6591V80.3636V79.3636H64.0227V80.3636ZM75.6591 80.3636H74.6591V92H75.6591H76.6591V80.3636H75.6591ZM75.6591 92V91H64.0227V92V93H75.6591V92ZM64.0227 92H65.0227V80.3636H64.0227H63.0227V92H64.0227Z" fill="black" mask="url(#path-2-outside-1_0_1)"/>
</svg>
